<svg xmlns="http://www.w3.org/2000/svg" viewBox="0 0 64 64" fill="none" role="img" aria-label="TransitOps">
  <rect width="64" height="64" rx="14" fill="#05070d"/>
  <path d="M18 46c0-10 6-18 14-24 4-3 8-5 12-6" stroke="#0f2744" stroke-width="7" stroke-linecap="round"/>
  <path d="M18 46c0-10 6-18 14-24 4-3 8-5 12-6" stroke="#163a63" stroke-width="4.5" stroke-linecap="round"/>
  <path d="M34 16h16l8 8v10H34V16z" fill="#0f2744"/>
  <path d="M36 20h11l5 4v5H36v-9z" fill="#14b8a6" fill-opacity="0.35"/>
  <rect x="12" y="30" width="14" height="3.2" rx="1.6" fill="#14b8a6"/>
  <rect x="12" y="36" width="11" height="3.2" rx="1.6" fill="#14b8a6"/>
  <rect x="12" y="42" width="8" height="3.2" rx="1.6" fill="#14b8a6"/>
  <circle cx="46" cy="40" r="4.5" fill="#0b1220" stroke="#334155" stroke-width="1"/>
</svg>
