<svg xmlns="http://www.w3.org/2000/svg" viewBox="0 0 64 64" role="img" aria-label="TransitOps">
  <defs>
    <linearGradient id="bg" x1="8" y1="8" x2="56" y2="56" gradientUnits="userSpaceOnUse">
      <stop offset="0%" stop-color="#2563EB"/>
      <stop offset="55%" stop-color="#0EA5E9"/>
      <stop offset="100%" stop-color="#14B8A6"/>
    </linearGradient>
    <linearGradient id="road" x1="12" y1="44" x2="52" y2="44" gradientUnits="userSpaceOnUse">
      <stop offset="0%" stop-color="#F59E0B"/>
      <stop offset="100%" stop-color="#F97316"/>
    </linearGradient>
  </defs>
  <rect x="4" y="4" width="56" height="56" rx="16" fill="url(#bg)"/>
  <rect x="4" y="4" width="56" height="56" rx="16" fill="none" stroke="#FFFFFF" stroke-opacity="0.22" stroke-width="1.5"/>
  <path d="M12 42h40" stroke="url(#road)" stroke-width="4" stroke-linecap="round"/>
  <path d="M18 42h6M30 42h6M42 42h6" stroke="#FFFFFF" stroke-opacity="0.85" stroke-width="2" stroke-linecap="round"/>
  <rect x="34" y="24" width="22" height="14" rx="3" fill="#1E3A8A" fill-opacity="0.92"/>
  <path d="M14 28h16l5 5v9H14V28z" fill="#1E3A8A" fill-opacity="0.95"/>
  <path d="M17 31h10v7H17z" fill="#FFFFFF" fill-opacity="0.92"/>
  <rect x="37" y="27" width="16" height="3" rx="1.5" fill="#FBBF24"/>
  <rect x="12" y="33" width="3" height="5" rx="1" fill="#FBBF24"/>
  <rect x="52" y="33" width="3" height="5" rx="1" fill="#F87171"/>
  <circle cx="24" cy="42" r="5" fill="#0F172A"/>
  <circle cx="24" cy="42" r="2.2" fill="#E2E8F0"/>
  <circle cx="44" cy="42" r="5" fill="#0F172A"/>
  <circle cx="44" cy="42" r="2.2" fill="#E2E8F0"/>
  <path d="M46 18l8 4-8 4" stroke="#FFFFFF" stroke-width="2.2" stroke-linecap="round" stroke-linejoin="round"/>
  <path d="M40 22h12" stroke="#FDE68A" stroke-width="2.2" stroke-linecap="round"/>
</svg>
