<svg xmlns="http://www.w3.org/2000/svg" viewBox="0 0 220 64" fill="none" role="img" aria-label="TransitOps">
  <rect width="220" height="64" rx="12" fill="#05070d"/>
  <path d="M24 48c0-12 8-22 18-30 5-4 10-6 16-8" stroke="#0f2744" stroke-width="8" stroke-linecap="round"/>
  <path d="M24 48c0-12 8-22 18-30 5-4 10-6 16-8" stroke="#163a63" stroke-width="5" stroke-linecap="round"/>
  <path d="M44 18h24l10 10v12H44V18z" fill="#0f2744"/>
  <path d="M47 23h16l6 5v5H47v-10z" fill="#14b8a6" fill-opacity="0.35"/>
  <rect x="14" y="30" width="18" height="4" rx="2" fill="#14b8a6"/>
  <rect x="14" y="37" width="14" height="4" rx="2" fill="#14b8a6"/>
  <rect x="14" y="44" width="10" height="4" rx="2" fill="#14b8a6"/>
  <circle cx="62" cy="42" r="5.5" fill="#0b1220" stroke="#334155" stroke-width="1.2"/>
  <text x="88" y="40" fill="#f8fafc" font-family="system-ui, -apple-system, sans-serif" font-size="22" font-weight="700" letter-spacing="-0.03em">TransitOps</text>
</svg>
